<svg xmlns="http://www.w3.org/2000/svg" id="Camada_2" data-name="Camada 2" viewBox="0 0 386.57 65.04"><defs><style>      .cls-1 {        fill: #fff;      }      .cls-2 {        fill: #f20000;      }    </style></defs><g id="Camada_1-2" data-name="Camada 1"><g><g><path class="cls-1" d="M14.69,63.37H0V15.84h14.69v47.52Z"></path><path class="cls-1" d="M74.72,63.37h-12.96v-19.01l.29-15.34h-.14l-10.44,34.35h-11.81l-10.3-34.35h-.22l.29,15.34v19.01h-12.96V15.84h20.74l6.41,22.54,2.38,9.43h.14l2.38-9.43,6.41-22.54h19.8v47.52Z"></path><path class="cls-1" d="M115.67,52.35v11.02h-39.24V15.84h38.31v11.02h-23.62v7.7h18.87v10.23h-18.87v7.56h24.55Z"></path><path class="cls-1" d="M138.02,46.88h-5.98v16.49h-14.4V15.84h24.34c12.1,0,18.58,5.33,18.58,15.55,0,6.91-3.02,11.67-8.86,13.9l11.59,18.07h-16.06l-9.22-16.49ZM132.05,36.87h7.13c4.75,0,6.62-1.44,6.62-5.11s-1.87-5.18-6.62-5.18h-7.13v10.3Z"></path><path class="cls-1" d="M204.8,23.19l-7.2,9.29c-3.82-4.39-7.99-6.26-13.68-6.26-4.18,0-6.55,1.51-6.55,3.67,0,1.8,2.66,2.59,7.78,3.53,13.68,2.45,19.01,6.91,19.01,15.7,0,9.72-9.15,14.98-20.74,14.98s-17.28-2.66-22.61-7.34l6.84-10.08c3.96,4.61,8.57,6.34,14.83,6.34,4.68,0,6.55-1.22,6.55-3.17s-2.88-2.81-8.06-3.74c-9.36-1.8-18.79-4.46-18.79-15.05,0-9.29,7.63-15.91,21.39-15.91,9,0,15.12,2.09,21.24,8.06Z"></path><path class="cls-1" d="M233.49,53.5h-14.47l-2.74,9.86h-14.69l15.99-47.52h17.64l16.06,47.52h-15.12l-2.66-9.86ZM219.37,12.1h-7.78c.29-8.21,3.82-12.1,10.08-12.1,5.62,0,6.55,3.82,9.22,3.82,1.44,0,2.16-1.15,2.45-3.74h7.78c-.29,8.21-3.82,12.17-10.08,12.17-5.62,0-6.48-3.89-9.22-3.89-1.44,0-2.16,1.15-2.45,3.74ZM230.9,44l-2.52-9.43-2.02-7.78h-.14l-1.94,7.7-2.66,9.5h9.29Z"></path><path class="cls-1" d="M272.14,16.08c-14.76,0-23.83,9-23.83,24.48s9.07,24.48,23.83,24.48,23.69-9,23.69-24.48-8.86-24.48-23.69-24.48ZM271.15,53.76h0c-4.59,2.65-10.32-.67-10.32-5.96v-14.49c0-5.29,5.73-8.6,10.32-5.96h0M279.48,32.16l14.56,8.4-14.56,8.4"></path></g><path class="cls-2" d="M327.89,31.71l-.09.11c-1.82,2.34-4.93,3.08-7.72,2.07-1.04-.38-2.18-.55-3.45-.55-2.25,0-3.53.82-3.53,1.98,0,.97,1.44,1.4,4.19,1.9,7.38,1.32,10.25,3.73,10.25,8.46,0,5.24-4.93,8.07-11.18,8.07s-9.32-1.44-12.19-3.96v-.02c1.75-2.55,4.95-3.48,7.89-2.53,1.14.37,2.39.53,3.8.53,2.52,0,3.53-.66,3.53-1.71s-1.55-1.51-4.35-2.02c-5.05-.97-10.13-2.41-10.13-8.11,0-5.01,4.11-8.58,11.53-8.58,4.85,0,8.15,1.13,11.45,4.35Z"></path><path class="cls-2" d="M360.12,53.37h-6.99v-10.25l.16-8.27h-.08l-5.63,18.52h-6.37l-5.55-18.52h-.12l.16,8.27v10.25h-6.99v-25.62h0c6.62,0,12.43,4.39,14.24,10.75l.4,1.4,1.28,5.09h.08l1.28-5.09.54-1.88c1.73-6.08,7.28-10.27,13.6-10.27h0v25.62Z"></path><path class="cls-2" d="M377.6,53.37h0s-7.96,0-7.96,0h0c0-5.96-1.49-11.83-4.34-17.06l-4.66-8.56h.92c4.35,0,8.32,2.49,10.22,6.41h0s0,.01,0,.01c.71,1.66,3.06,1.65,3.76-.01h0s0,0,0,0c1.92-3.92,5.91-6.41,10.28-6.41h.75l-4.64,8.55c-2.84,5.24-4.33,11.11-4.33,17.07Z"></path></g></g></svg>